<!--?xml version="1.0" standalone="no"?-->
              <svg id="sw-js-blob-svg" viewBox="0 0 100 100" xmlns="http://www.w3.org/2000/svg" version="1.1">
                    <defs> 
                        <linearGradient id="sw-gradient" x1="0" x2="1" y1="1" y2="0">
                            <stop id="stop1" stop-color="rgba(238, 202, 58, 1)" offset="0%"></stop>
                            <stop id="stop2" stop-color="rgba(238, 202, 58, 1)" offset="100%"></stop>
                        </linearGradient>
                    </defs>
                <path fill="url(#sw-gradient)" d="M5.1,-8.5C8.3,-7,13.8,-9.1,18.1,-8.3C22.5,-7.4,25.6,-3.7,28.9,1.9C32.3,7.6,35.9,15.2,34.9,21.7C33.8,28.2,28.2,33.6,21.6,33.1C15,32.6,7.5,26.3,2,22.7C-3.4,19.2,-6.9,18.5,-9.8,16.9C-12.7,15.3,-15.1,12.7,-20.6,9.7C-26,6.7,-34.6,3.4,-34.8,-0.1C-35.1,-3.6,-27,-7.3,-22.5,-12C-18,-16.8,-17.3,-22.6,-14.1,-24.2C-11,-25.7,-5.5,-23,-2.3,-19.1C0.9,-15.1,1.9,-10,5.1,-8.5Z" width="100%" height="100%" transform="translate(50 50)" stroke-width="0" style="transition: all 0.3s ease 0s;" stroke="url(#sw-gradient)"></path>
              </svg>